<svg version="1.1" id="Layer_1" xmlns="http://www.w3.org/2000/svg" xmlns:xlink="http://www.w3.org/1999/xlink" x="0px" y="0px"
	 width="100%" viewBox="0 0 1024 880" enable-background="new 0 0 1024 880" xml:space="preserve">
<path fill="#000000" opacity="1.000000" stroke="none" 
	d="
M575.403381,462.433990 
	C566.472229,469.300201 557.173584,474.805603 546.570679,477.645630 
	C537.018494,480.204224 534.312988,478.722931 529.704895,470.112518 
	C501.017944,416.510468 522.896606,353.706909 575.274231,326.818054 
	C595.905945,316.226501 617.820740,311.702728 641.001038,313.712158 
	C641.829590,313.783966 642.669434,313.821899 643.479736,313.991577 
	C647.895691,314.916229 650.710083,318.003601 649.944275,321.434662 
	C648.988281,325.717712 645.877258,327.528900 641.744629,327.009644 
	C634.246460,326.067596 626.823364,326.415009 619.331238,327.143311 
	C576.249390,331.331207 536.138245,362.002930 530.573853,411.129333 
	C528.562439,428.887238 532.079773,445.923248 540.059570,462.014801 
	C541.877380,465.680481 544.007690,466.227631 547.633301,464.681702 
	C571.666504,454.434723 585.073669,435.834412 590.694214,410.839630 
	C593.313232,399.192444 593.710815,387.109863 598.606140,375.885162 
	C604.121216,363.239716 612.384888,353.268555 623.913025,345.771759 
	C632.722900,340.042603 641.646606,334.528931 651.102112,329.944183 
	C657.677856,326.755737 660.493896,328.485809 662.663330,335.460754 
	C663.928589,339.528687 666.471008,343.189545 668.339478,347.081238 
	C682.469360,376.511047 682.609192,406.310333 667.824829,435.129883 
	C656.647644,456.917969 638.438721,472.347687 616.059937,482.571533 
	C598.544189,490.573700 580.062073,494.342255 560.894592,495.066345 
	C560.062378,495.097778 559.228271,495.102783 558.395447,495.090118 
	C552.162292,494.995331 548.634949,492.419739 548.764832,488.067383 
	C548.889709,483.880615 552.137695,481.733887 558.309692,481.712708 
	C585.627319,481.619019 610.480225,474.144287 632.365479,457.381317 
	C665.662292,431.877594 675.239197,385.192657 654.651794,348.681091 
	C652.639587,345.112427 651.037476,344.516235 647.373779,346.690430 
	C639.775696,351.199371 632.025757,355.470856 625.182495,361.082489 
	C613.581970,370.595154 608.450378,383.462250 606.293701,397.943695 
	C604.947449,406.983643 602.940308,415.894165 600.538696,424.760437 
	C596.375305,440.130829 586.058167,451.115967 575.403381,462.433990 
z"/>
<path fill="#000000" opacity="1.000000" stroke="none" 
	d="
M420.874329,305.925232 
	C431.377930,293.305603 442.346497,281.740021 456.966858,274.396118 
	C461.305695,272.216705 465.950134,270.824463 470.713501,269.930481 
	C474.672760,269.187378 477.882233,270.050720 479.758362,274.180725 
	C487.989563,292.300323 493.136017,311.054749 492.326477,331.180756 
	C490.933563,365.810303 476.133514,393.274414 447.941345,413.240417 
	C425.723572,428.975281 400.522644,435.423157 373.487183,435.289703 
	C371.645782,435.280609 369.820831,435.205872 368.114563,434.382355 
	C365.656433,433.195953 364.105164,431.275116 364.112610,428.535706 
	C364.120117,425.771362 365.754761,423.913605 368.239197,422.798706 
	C370.934601,421.589081 373.801331,421.933685 376.620300,421.908997 
	C404.279236,421.666901 429.171448,413.672241 449.945526,394.952454 
	C467.265411,379.345276 477.072754,359.790009 478.813416,336.414551 
	C480.031036,320.063110 477.866486,304.219055 471.792419,288.882324 
	C470.086029,284.573730 468.062897,283.685303 463.943878,285.505585 
	C452.156647,290.714539 443.687225,299.960236 435.212921,309.087921 
	C425.148590,319.928101 420.390137,333.064667 418.188629,347.710999 
	C413.404877,379.536835 394.267517,400.262085 365.381500,412.832428 
	C363.101196,413.824768 360.808685,414.868896 358.715118,416.194244 
	C353.936310,419.219635 350.992401,419.051849 347.477814,414.674805 
	C337.259552,401.948975 331.800446,387.304993 330.688446,371.078522 
	C326.874725,315.426270 371.553955,262.580505 426.168427,254.102692 
	C436.635498,252.477875 447.077911,252.698334 457.416626,255.160690 
	C458.859283,255.504288 460.344971,255.970139 461.601868,256.726440 
	C464.081299,258.218414 465.447083,260.447510 464.687195,263.448730 
	C463.953949,266.344696 461.986084,268.177277 459.003815,268.200287 
	C456.370117,268.220642 453.725555,267.683441 451.096436,267.316101 
	C423.624390,263.477539 400.169312,272.565521 379.679230,290.164398 
	C358.273529,308.549713 345.656250,331.775879 343.633331,360.183685 
	C342.628326,374.297302 345.666870,387.641602 352.975769,399.916595 
	C354.677612,402.774780 356.223328,403.594849 359.750397,402.167877 
	C375.320038,395.868866 387.383362,385.318054 396.335205,371.498993 
	C402.352020,362.210785 405.027618,351.279144 406.325806,340.348236 
	C407.855743,327.466064 413.352203,316.524231 420.874329,305.925232 
z"/>
<path fill="#000000" opacity="1.000000" stroke="none" 
	d="
M409.441650,589.415710 
	C398.829803,601.469727 385.561371,608.415100 370.680298,612.603943 
	C364.770477,614.267517 361.785522,612.263428 359.380035,606.700256 
	C355.203369,597.040894 351.429688,587.259033 349.247955,576.966370 
	C342.305298,544.213562 346.893341,513.922424 369.677460,488.102295 
	C385.577911,470.083099 406.272308,460.170959 429.391693,454.896698 
	C442.108765,451.995514 455.009430,450.743103 468.047791,450.899719 
	C469.210144,450.913666 470.397736,450.929901 471.527496,451.165802 
	C475.153717,451.923096 477.901367,453.966003 477.726837,457.856110 
	C477.543243,461.949463 474.636993,464.103180 470.666290,464.148224 
	C462.668427,464.239014 454.684052,464.299194 446.724548,465.262390 
	C421.943939,468.261169 399.283600,476.218750 381.501740,494.514923 
	C363.893250,512.632690 357.731598,534.883850 359.849518,559.664917 
	C360.919800,572.188110 364.127686,584.206360 368.863770,595.876160 
	C370.239777,599.266663 371.757141,599.672363 374.830231,598.469727 
	C387.996521,593.317749 397.855194,584.559937 405.938202,572.911133 
	C415.427490,559.235596 420.102875,543.880798 423.304016,528.088440 
	C427.993622,504.953156 439.664001,486.981537 459.295471,474.010345 
	C465.416016,469.966248 471.410736,465.730804 478.480347,463.450623 
	C484.694153,461.446411 486.060852,462.498138 489.728485,468.023285 
	C496.563660,478.320160 501.430786,489.294403 503.300598,501.529266 
	C507.155182,526.751465 501.258728,549.962524 487.693817,571.129272 
	C467.257599,603.018005 438.220093,622.233948 400.583588,627.906799 
	C395.346191,628.696167 390.015808,629.415649 384.659515,628.658813 
	C379.294037,627.900757 376.340759,625.289795 376.910736,621.403687 
	C377.619537,616.571167 381.158539,615.540833 385.383301,615.590393 
	C406.695831,615.840454 426.218567,609.825928 443.724335,597.874634 
	C468.254364,581.127747 485.138519,558.817932 490.162842,529.005554 
	C492.961670,512.398682 491.103088,496.135895 482.565613,481.074829 
	C480.833221,478.018707 479.271698,476.990753 475.930878,478.826721 
	C465.128937,484.763123 455.468414,492.471558 447.880737,501.837982 
	C441.571228,509.626648 438.602295,519.809204 436.365479,529.798035 
	C432.163696,548.561523 427.189514,566.998901 414.917297,582.472595 
	C413.159424,584.689026 411.429016,586.927307 409.441650,589.415710 
z"/>
</svg>