<svg version="1.1" id="Layer_1" xmlns="http://www.w3.org/2000/svg" xmlns:xlink="http://www.w3.org/1999/xlink" x="0px" y="0px"
	 width="100%" viewBox="0 0 864 864" enable-background="new 0 0 864 864" xml:space="preserve">
<path fill="#000000" opacity="1.000000" stroke="none" 
	d="
M490.896790,345.109283 
	C493.161896,344.058411 495.403168,342.951935 497.696960,341.967804 
	C503.064423,339.664917 507.860504,341.322815 509.806793,346.840332 
	C516.684937,366.339539 516.835205,385.363342 506.685913,404.206635 
	C495.510895,424.954376 478.931915,440.222992 459.701324,452.966492 
	C454.331482,456.524902 448.266388,459.094910 442.358521,461.759796 
	C438.205902,463.632904 436.123108,462.081604 435.666534,457.540894 
	C434.431152,445.255310 434.868774,432.950623 435.878082,420.708282 
	C436.355286,414.920288 438.570648,409.302490 442.641266,404.861877 
	C445.678131,401.549011 447.458313,397.769196 448.414795,393.451874 
	C450.989105,381.831665 458.042847,373.049225 466.977203,365.814789 
	C474.105682,360.042664 481.141083,354.223145 487.966309,347.209473 
	C489.247314,346.235992 490.072052,345.672638 490.896790,345.109283 
z"/>
<path fill="#000000" opacity="1.000000" stroke="none" 
	d="
M491.096649,344.823303 
	C490.072052,345.672638 489.247314,346.235992 488.148407,346.944489 
	C475.067627,354.216400 462.629944,361.857910 452.379028,372.546997 
	C452.150391,372.785461 451.885315,373.051392 451.795593,373.351807 
	C447.183105,388.791992 434.856506,400.826324 432.917267,417.599915 
	C431.810394,427.173920 432.633972,436.485565 433.489075,445.893585 
	C433.850067,449.865173 433.305267,453.822968 433.898560,457.829803 
	C434.412842,461.303131 432.048859,461.849518 428.063263,460.309418 
	C412.817810,454.418304 408.210083,441.906006 406.886383,427.189209 
	C404.785400,403.830231 409.126099,382.159119 423.408722,363.004822 
	C433.196045,349.879120 446.506927,341.875031 461.293671,335.486084 
	C471.889221,330.908020 482.361938,329.852051 493.404785,332.613556 
	C496.007507,333.264404 499.198578,333.648682 499.613037,336.735168 
	C500.002808,339.637634 496.870880,340.489319 494.857727,341.853058 
	C493.628601,342.685669 492.480804,343.638489 491.096649,344.823303 
z"/>
<path fill="#000000" opacity="1.000000" stroke="none" 
	d="
M386.967224,348.939392 
	C389.973877,356.183136 397.190338,358.646790 402.906555,362.721222 
	C409.333649,367.302277 411.753815,374.236938 408.691803,381.241852 
	C399.908081,401.336426 398.533905,421.888733 404.904572,442.919617 
	C405.038971,443.363251 404.921417,443.883179 404.921417,444.392395 
	C403.400574,445.868225 402.093567,444.911804 401.048462,443.861237 
	C388.143433,430.889130 374.818634,418.048035 368.197632,400.519379 
	C363.080536,386.972290 359.729767,372.848846 362.674408,358.107666 
	C363.726715,352.839905 365.770538,347.901093 368.989166,343.603607 
	C374.190979,336.658203 376.923309,336.607910 383.031647,343.414917 
	C384.621155,345.567322 385.794189,347.253357 386.967224,348.939392 
z"/>
<path fill="#000000" opacity="1.000000" stroke="none" 
	d="
M387.260254,349.113312 
	C385.794189,347.253357 384.621155,345.567322 383.325287,343.627075 
	C382.713562,340.123260 379.725555,338.122498 378.936707,334.974579 
	C379.740509,332.703033 381.807190,332.174042 383.696228,331.882385 
	C401.435974,329.143555 417.312988,333.592346 431.445648,344.535278 
	C434.301910,346.746857 433.851288,349.208069 431.459442,351.237213 
	C426.615479,355.346558 422.354126,359.969208 418.116455,364.685394 
	C413.958069,369.313416 411.661072,369.256012 407.485229,364.654816 
	C403.600098,360.373932 399.334564,357.016357 393.922943,354.790771 
	C391.461548,353.778564 389.656189,351.171112 387.260254,349.113312 
z"/>
</svg>