<svg version="1.1" id="Layer_1" xmlns="http://www.w3.org/2000/svg" xmlns:xlink="http://www.w3.org/1999/xlink" x="0px" y="0px"
	 width="100%" viewBox="0 0 1024 800" enable-background="new 0 0 1024 800" xml:space="preserve">
<path fill="#000000" opacity="1.000000" stroke="none" 
	d="
M414.673767,591.307922 
	C421.824127,596.718323 429.793182,599.157288 438.140686,600.068298 
	C461.710785,602.640686 485.072937,603.419617 506.421448,590.207581 
	C518.072327,582.997131 526.474915,573.186951 532.786621,560.963989 
	C546.621216,534.172791 554.113098,505.453796 560.132996,476.203125 
	C561.587524,469.135345 560.633179,461.938782 561.446838,454.797089 
	C562.688477,443.899017 562.840637,432.881287 563.757263,421.939636 
	C564.132874,417.456451 562.553833,416.252563 558.194946,416.219879 
	C522.373962,415.951752 486.553406,415.542908 450.734985,415.023712 
	C417.587646,414.543243 384.443024,413.876343 351.297424,413.278564 
	C350.136414,413.257660 348.947479,413.232147 347.823944,412.977692 
	C344.529480,412.231628 342.418182,410.145508 342.346039,406.745880 
	C342.273010,403.301270 344.335693,401.181580 347.684052,400.494110 
	C352.969818,399.408875 358.310577,400.110443 363.626587,400.195099 
	C367.620880,400.258667 371.611023,400.609161 375.605042,400.655975 
	C412.588074,401.089325 449.578888,401.162445 486.552399,402.001434 
	C512.207764,402.583588 537.863892,402.510498 563.515747,403.000854 
	C564.847046,403.026337 566.185486,403.045105 567.506287,403.194519 
	C576.725220,404.237396 578.550781,407.089325 577.633179,416.357269 
	C576.239197,430.436157 574.587952,444.568573 574.538940,458.683441 
	C574.462341,480.723236 568.196838,501.391235 562.415405,522.212891 
	C557.992859,538.140076 551.596497,553.324890 543.963867,567.991699 
	C528.671265,597.377930 503.854218,611.723511 471.420685,614.425110 
	C460.569122,615.328979 449.791168,614.910156 439.035309,613.806396 
	C419.305603,611.781860 403.510925,602.196899 390.570160,587.570618 
	C375.245361,570.249817 361.591309,551.834717 354.455597,529.444458 
	C349.936340,515.264038 347.594879,500.659821 346.734741,485.805237 
	C345.897766,471.351654 344.934601,456.905334 344.126587,442.450226 
	C343.997620,440.142731 344.200623,437.773804 344.584747,435.489563 
	C345.345978,430.963043 347.972717,429.151306 352.377289,430.184052 
	C354.516235,430.685608 356.625885,430.927277 358.796082,430.945618 
	C403.114746,431.320221 447.433563,431.675720 491.751831,432.095398 
	C502.911041,432.201050 514.067505,432.579071 525.226685,432.715607 
	C536.196106,432.849823 539.762695,436.282806 538.673584,447.349976 
	C536.716431,467.237640 532.750671,486.800232 528.733643,506.373657 
	C524.910156,525.003845 517.296448,541.757874 506.678955,557.331116 
	C496.000580,572.993652 481.229095,581.884888 462.424561,584.095154 
	C460.440430,584.328308 458.416595,584.506470 456.481934,583.815369 
	C454.056335,582.949036 452.625122,581.257019 452.571808,578.594055 
	C452.523224,576.169495 453.602264,574.326599 455.861298,573.505005 
	C457.880249,572.770691 460.004608,572.197937 462.130768,571.907166 
	C477.380646,569.821777 488.319794,561.482239 496.810364,548.996521 
	C509.978210,529.632568 515.899841,507.773468 519.673584,485.107178 
	C521.503967,474.113434 522.997192,463.057678 525.101318,452.118103 
	C526.030762,447.285706 524.653870,446.065735 519.951111,445.945709 
	C484.799896,445.048523 449.641541,445.336975 414.487335,445.036407 
	C397.329651,444.889740 380.173950,444.515594 363.016815,444.285278 
	C361.217194,444.261108 359.354279,443.922668 357.309387,444.928619 
	C356.422028,448.522614 357.041595,452.345459 357.335938,456.052094 
	C358.980591,476.764282 360.017212,497.531403 364.890808,517.887451 
	C370.639740,541.899597 384.703674,560.909424 400.596619,578.863770 
	C404.659393,583.453491 408.956116,587.956726 414.673767,591.307922 
z"/>
<path fill="#000000" opacity="1.000000" stroke="none" 
	d="
M444.006439,284.952026 
	C452.885834,281.386749 461.784668,279.188354 470.581055,276.693787 
	C479.652222,274.121307 488.046234,270.217896 495.740387,264.822418 
	C501.972046,260.452515 503.676636,255.317520 501.565033,247.940994 
	C499.609314,241.109177 496.660004,234.883606 491.047180,230.191360 
	C487.968201,227.617386 486.756256,224.420654 489.705627,221.100601 
	C492.633362,217.804886 495.977631,218.672134 498.993713,221.210098 
	C508.657410,229.341751 513.982300,239.989975 515.109863,252.315872 
	C515.947815,261.475983 511.728088,269.012543 504.356171,274.699646 
	C491.928009,284.287445 477.248138,288.463531 462.533478,292.894958 
	C446.779205,297.639465 431.397064,303.609009 415.690674,308.526978 
	C405.714325,311.650757 403.864044,324.368835 408.662140,331.678711 
	C417.795471,345.593292 430.436096,354.765411 445.777344,360.681885 
	C452.290375,363.193726 458.635559,366.141388 465.052155,368.902222 
	C468.200470,370.256836 469.771545,372.648102 469.118866,376.049988 
	C468.453247,379.519440 465.813934,380.878235 462.573975,381.130524 
	C461.449493,381.218048 460.205444,381.029572 459.154602,380.615448 
	C442.281219,373.966064 425.094940,367.765076 411.377686,355.310883 
	C404.093170,348.697113 397.668335,341.084808 394.220123,331.692657 
	C388.612640,316.418915 396.599976,300.962860 412.438202,295.605164 
	C422.834351,292.088440 433.238647,288.595856 444.006439,284.952026 
z"/>
<path fill="#000000" opacity="1.000000" stroke="none" 
	d="
M609.869873,467.109009 
	C604.619629,462.467163 598.330139,461.378143 592.163208,459.997925 
	C588.255371,459.123291 584.827942,457.560760 585.878906,452.763824 
	C586.863037,448.271942 590.667664,447.488739 594.539246,447.977600 
	C618.753479,451.035095 636.451477,471.138550 635.112488,495.613129 
	C633.867126,518.376770 625.863342,537.955566 603.564880,548.405212 
	C593.523560,553.110840 582.612305,554.831360 571.685120,555.981750 
	C567.846191,556.385925 564.655640,554.256042 564.138000,550.203003 
	C563.599731,545.988281 566.571960,543.719238 570.284302,542.994324 
	C576.966492,541.689148 583.710449,540.824402 590.352600,539.155823 
	C605.787415,535.278687 615.182739,525.321350 619.309143,510.464478 
	C621.605652,502.195770 623.244507,493.709076 620.864868,484.874451 
	C618.968018,477.832397 615.761841,471.936646 609.869873,467.109009 
z"/>
</svg>