<svg version="1.1" id="Layer_1" xmlns="http://www.w3.org/2000/svg" xmlns:xlink="http://www.w3.org/1999/xlink" x="0px" y="0px"
	 width="100%" viewBox="0 0 280 327" enable-background="new 0 0 280 327" xml:space="preserve">
<path fill="#FEFDFD" opacity="1.000000" stroke="none" 
	d="
M1.000000,118.000000 
	C1.000000,78.666664 1.000000,39.833332 1.000000,1.000000 
	C94.333336,1.000000 187.666672,1.000000 281.000000,1.000000 
	C281.000000,110.000000 281.000000,219.000000 281.000000,328.000000 
	C187.666672,328.000000 94.333336,328.000000 1.000000,328.000000 
	C1.000000,258.166656 1.000000,188.333328 1.000000,118.000000 
M116.033920,18.075096 
	C116.033920,18.075096 116.187698,18.164104 115.439842,18.063974 
	C112.138565,18.629280 111.984650,18.850492 113.176437,21.659933 
	C113.098518,22.013844 113.020599,22.367754 112.322769,23.051554 
	C109.617981,27.064238 106.913193,31.076921 103.534866,35.020233 
	C103.309975,35.000992 103.085091,34.981750 102.990311,34.198246 
	C102.517998,33.236877 102.184975,31.547497 101.551903,31.426382 
	C94.985832,30.170179 88.397873,28.909557 81.756721,28.226295 
	C79.289566,27.972466 78.038513,30.019506 79.048996,33.378593 
	C79.026482,33.846512 79.003967,34.314434 78.126480,34.811420 
	C70.570320,34.882084 66.423294,39.522373 65.948364,47.751049 
	C65.232651,60.151810 66.876961,72.006493 72.628990,83.497314 
	C72.053253,83.678368 71.477516,83.859413 70.270935,83.701385 
	C59.785500,66.040222 63.045403,46.718376 64.105354,27.904999 
	C58.280834,25.325720 56.142349,28.531326 54.908257,32.729115 
	C49.319992,51.737617 50.089420,70.981415 59.545528,87.991112 
	C74.461357,114.821793 99.039024,127.878395 129.488800,129.893219 
	C132.939087,130.121506 136.567108,128.815689 139.903992,129.404358 
	C153.694916,131.837265 166.596008,128.634491 179.398163,124.114029 
	C199.095810,117.158783 213.013931,104.721550 221.192780,84.880356 
	C226.000992,73.216042 227.437180,61.425175 227.789810,49.411732 
	C228.023636,41.446213 225.771088,33.397621 224.521790,25.403372 
	C223.984222,21.963535 221.893661,21.222685 218.678925,22.254229 
	C215.350708,23.322182 215.772919,25.209677 217.005692,27.604637 
	C217.529953,28.623161 217.850296,29.774429 218.101837,30.901413 
	C222.231308,49.402882 219.025894,66.777977 209.660263,83.046829 
	C203.876205,93.094215 197.189972,102.382355 185.106842,104.859230 
	C185.040161,104.448402 184.973495,104.037582 185.266602,103.096008 
	C189.114029,99.965630 193.919785,97.493332 196.613464,93.570671 
	C202.598175,84.855438 208.587845,75.851357 212.584671,66.145241 
	C216.604599,56.383064 218.514572,45.627705 212.672379,34.706070 
	C212.304718,34.520695 211.937073,34.335320 210.959030,33.911369 
	C207.732498,31.966616 205.638718,25.684273 199.241608,30.927826 
	C198.831879,30.847618 198.422165,30.767410 198.005737,30.021816 
	C196.906845,28.665510 195.826797,26.159548 194.705978,26.141171 
	C187.893173,26.029453 181.402634,27.513454 175.190475,32.017567 
	C174.689590,32.059494 174.188690,32.101421 173.256042,31.648226 
	C167.128769,25.411268 161.313568,18.815943 154.739822,13.091717 
	C151.553635,10.317285 146.945450,9.189283 142.178680,12.999877 
	C141.065399,13.019546 139.952118,13.039214 138.329742,12.761183 
	C137.554123,12.162152 136.778519,11.563123 135.908569,10.317528 
	C134.933884,10.473516 133.959213,10.629505 132.171600,10.934328 
	C127.768005,12.617927 123.364418,14.301526 118.236359,15.995146 
	C117.542694,16.731697 116.849022,17.468248 116.033920,18.075096 
M216.403458,252.929672 
	C221.772186,249.292664 224.216248,243.933380 224.810242,237.747070 
	C224.953262,236.257507 223.963120,233.845764 222.798950,233.274399 
	C221.650970,232.710953 218.654205,233.450043 218.136246,234.467041 
	C214.766663,241.083145 209.060913,240.688110 203.524902,239.283142 
	C193.876816,236.834595 184.394424,233.732269 174.845993,230.892456 
	C170.394180,229.568436 165.971451,227.243103 161.497131,227.146271 
	C156.803421,227.044693 152.063187,229.926453 147.344269,229.923492 
	C142.558716,229.920471 137.789062,227.911850 132.978241,226.953247 
	C131.904083,226.739227 130.623581,227.060608 129.546143,227.441315 
	C119.701195,230.920029 109.915642,234.569672 100.041603,237.962357 
	C91.120911,241.027496 82.477600,242.586197 76.148392,232.767258 
	C75.444931,231.675919 71.816231,230.979691 71.198990,231.642136 
	C70.015068,232.912766 69.226906,235.521225 69.703613,237.158585 
	C70.567459,240.125732 72.257607,242.935059 73.995888,245.548828 
	C78.537834,252.378281 83.278763,259.090393 92.094971,260.924133 
	C111.942039,265.052246 131.067505,264.170898 148.650253,252.518097 
	C157.175232,258.553955 166.999832,260.779327 176.913818,261.656219 
	C190.568283,262.863983 204.322723,262.961731 216.403458,252.929672 
M72.937195,148.592056 
	C75.098640,148.713745 77.262772,148.976944 79.421120,148.935852 
	C111.209572,148.330353 143.007935,147.993622 174.779861,146.895950 
	C187.496399,146.456619 200.140671,144.172913 212.842606,142.996033 
	C226.523392,141.728424 238.966248,137.016937 250.065765,129.210678 
	C253.976791,126.460075 256.913330,122.084778 259.619995,118.003731 
	C260.453094,116.747604 259.709503,113.118736 258.479004,112.206032 
	C257.321686,111.347603 254.018906,111.957298 252.610748,113.096352 
	C244.496765,119.659706 235.843140,125.152245 225.434677,126.944595 
	C217.120102,128.376373 208.685196,129.108810 200.304214,130.155655 
	C189.943695,131.449738 179.614609,133.475571 169.218079,133.917313 
	C126.282257,135.741562 83.345703,135.872971 40.494072,131.836487 
	C37.053612,131.512390 33.644409,130.856506 30.220682,130.354797 
	C30.189447,129.617355 30.158213,128.879913 30.126978,128.142471 
	C40.995449,126.138458 51.855255,124.085365 62.738247,122.163582 
	C65.600639,121.658119 69.345131,121.362396 68.360992,117.716248 
	C67.826477,115.735886 64.057388,113.403412 61.718384,113.371857 
	C55.452831,113.287338 49.037300,113.755844 42.929691,115.118080 
	C34.714371,116.950424 26.635483,119.554825 18.691431,122.372993 
	C14.918096,123.711594 12.593876,127.003166 12.750934,131.370590 
	C12.906476,135.695862 15.278486,138.542191 19.224014,139.967819 
	C24.358232,141.822937 29.456131,144.327621 34.770222,145.025482 
	C47.121075,146.647415 59.592171,147.353699 72.937195,148.592056 
M213.131866,172.380875 
	C207.088150,171.257690 201.068192,169.978043 194.994019,169.055374 
	C188.925369,168.133560 182.816376,167.174057 176.699448,166.958832 
	C170.579407,166.743515 167.333969,170.305389 166.761063,176.419983 
	C166.521545,178.976303 166.041672,181.510101 165.802292,183.153488 
	C155.049561,183.153488 144.889648,183.153488 134.439850,183.153488 
	C134.186630,181.785965 133.937668,179.640976 133.368576,177.584564 
	C132.751816,175.355927 132.029739,173.115326 131.015930,171.045303 
	C127.846710,164.574341 125.397133,163.575409 118.310173,164.459534 
	C110.235199,165.466904 102.113541,166.118088 94.003044,166.818390 
	C82.823372,167.783768 72.196053,170.401627 62.224800,175.834351 
	C58.507175,177.859848 58.282623,180.382889 59.155949,183.637177 
	C61.278175,191.545227 65.491394,198.600723 71.892853,203.281372 
	C86.664299,214.081970 103.177803,218.456787 121.320412,212.972000 
	C127.820412,211.006943 132.413452,206.616562 133.923401,199.986298 
	C134.687317,196.631943 136.022690,195.072937 139.249084,194.612915 
	C141.378006,194.309387 143.458817,193.670013 145.562225,193.185516 
	C155.706116,190.848984 163.977051,193.087570 170.092972,202.222351 
	C171.829834,204.816544 174.945084,207.085175 177.912582,208.138580 
	C184.922165,210.626877 192.193024,212.411774 199.414917,214.259476 
	C205.732346,215.875778 211.582825,214.149261 217.161880,211.150970 
	C225.486526,206.677109 228.694946,198.461243 231.617111,190.388504 
	C234.374908,182.769806 232.249741,173.969208 221.855850,173.803543 
	C219.221329,173.761566 216.597794,173.030075 213.131866,172.380875 
M254.979828,61.519653 
	C253.288071,65.216766 252.351196,69.605621 249.737503,72.457932 
	C245.179520,77.432037 239.695511,81.592369 234.405212,85.852333 
	C226.906082,91.890945 218.822662,97.349762 214.177780,106.139915 
	C213.438324,107.539284 214.125931,109.692734 214.153793,111.497559 
	C215.787964,111.081841 217.675400,111.052124 219.008438,110.177467 
	C222.886993,107.632607 226.432251,104.579681 230.311462,102.035988 
	C237.378204,97.402145 245.036423,93.551193 251.611252,88.321747 
	C257.513947,83.626884 262.716766,77.854927 267.419098,71.917229 
	C270.564087,67.946030 271.242371,62.667931 269.102600,57.673923 
	C264.413727,46.730518 256.842957,39.061523 244.451355,37.880562 
	C241.400085,37.589760 238.000229,38.614014 235.121475,39.864464 
	C233.725708,40.470749 232.256241,43.140247 232.488281,44.612804 
	C232.706161,45.995499 234.954620,47.445728 236.612747,48.113091 
	C238.561096,48.897270 240.836700,48.866474 242.969559,49.194454 
	C249.409729,50.184776 253.668518,54.277832 254.979828,61.519653 
M51.378517,309.867798 
	C57.478249,315.139893 63.912426,315.450745 69.277939,310.732544 
	C74.944946,305.749176 76.342247,295.767670 71.230972,289.907593 
	C68.759163,287.073669 64.474792,284.646515 60.823044,284.349823 
	C57.251335,284.059662 53.440472,286.712830 49.389477,288.200775 
	C49.389477,283.136871 49.389477,277.727631 49.389477,271.942841 
	C47.500965,272.141846 46.150768,272.284149 45.755867,272.325775 
	C45.755867,286.210815 45.755867,299.509827 45.755867,312.808838 
	C46.379574,312.997009 47.003281,313.185181 47.626984,313.373352 
	C48.702045,312.017365 49.777107,310.661377 51.378517,309.867798 
M255.147964,308.792328 
	C255.147964,296.692474 255.147964,284.592621 255.147964,272.014709 
	C253.154312,272.190002 251.692322,272.318512 251.063202,272.373810 
	C251.440598,278.377869 251.778564,283.754913 252.156006,289.759827 
	C243.260925,282.629120 236.493683,282.394836 231.006790,288.468445 
	C225.730774,294.308624 225.847702,304.169312 231.260727,309.884247 
	C236.789703,315.721619 243.735275,315.356049 251.686325,308.504517 
	C251.821838,310.106781 251.934921,311.443726 252.104004,313.442871 
	C253.912567,312.871216 255.328094,312.423767 256.743622,311.976349 
	C256.312134,311.185089 255.880630,310.393860 255.147964,308.792328 
M112.182457,298.542877 
	C107.729622,304.075500 108.178207,309.410736 113.984848,312.130707 
	C116.948967,313.519165 120.707756,313.833466 124.045700,313.628540 
	C127.458122,313.419098 130.584045,309.579346 134.365158,312.964111 
	C134.688858,313.253906 135.813782,312.648651 135.776108,312.658142 
	C135.497299,308.219818 135.204544,304.226898 135.012177,300.229156 
	C134.908386,298.072083 134.989807,295.906586 134.963928,293.745178 
	C134.906540,288.951782 132.540436,285.513794 127.906166,284.818115 
	C124.092407,284.245605 120.038994,284.716461 116.185028,285.320160 
	C115.105026,285.489288 114.354820,287.763916 113.453331,289.072754 
	C114.798065,288.849518 116.143517,288.434448 117.487396,288.439453 
	C121.342964,288.453827 125.339317,288.088593 128.983566,289.026123 
	C130.444351,289.401917 131.130005,292.790771 132.081787,294.639771 
	C125.017601,295.904816 118.914192,296.997772 112.182457,298.542877 
M102.836823,294.366516 
	C103.895363,293.375580 104.953903,292.384644 105.987625,291.416962 
	C101.047638,284.771820 95.282013,282.641602 88.592926,284.831390 
	C82.355820,286.873230 78.082779,292.682068 78.097183,299.099457 
	C78.111229,305.356995 82.127068,310.938416 88.207352,313.151062 
	C94.129105,315.306061 99.872032,313.758392 103.375198,308.361237 
	C101.859734,308.245605 100.402390,308.462311 99.170555,309.108765 
	C91.246315,313.267242 82.196175,308.595001 82.309212,300.037628 
	C89.525612,300.524231 96.698357,300.539001 102.836823,294.366516 
M199.337906,307.592010 
	C195.198257,310.744324 190.772232,312.043823 185.917282,309.341949 
	C182.455673,307.415497 179.863449,304.811554 180.007965,299.907196 
	C189.695953,301.408600 197.846970,299.023102 204.288376,290.619324 
	C201.843643,288.791992 199.700302,286.623077 197.113510,285.368225 
	C190.693771,282.253876 183.155746,284.493683 178.989243,290.333862 
	C174.714340,296.325989 175.309418,304.269562 180.427063,309.527100 
	C185.348053,314.582611 193.340637,315.602234 199.134735,311.713654 
	C200.375427,310.880981 203.742935,309.935577 199.337906,307.592010 
M165.836899,300.615082 
	C165.836899,304.711914 165.836899,308.808777 165.836899,313.187439 
	C167.899918,312.983093 169.316879,312.842743 170.212952,312.753967 
	C169.808563,309.092468 169.326538,305.813385 169.118896,302.516998 
	C168.941528,299.700958 169.140564,296.863434 169.064316,294.038330 
	C168.914917,288.501801 165.888519,285.113831 160.436157,284.187134 
	C154.903976,283.246796 150.920059,286.020569 147.139526,290.064941 
	C146.748779,288.146423 146.443253,286.646271 146.080399,284.864746 
	C144.438110,285.079193 143.092239,285.254944 142.280060,285.360992 
	C142.586227,289.623505 142.971161,293.317749 143.086304,297.020416 
	C143.220642,301.340088 143.021439,305.670959 143.191910,309.988068 
	C143.232346,311.012360 144.169067,312.001312 144.693497,313.006500 
	C145.341385,311.945007 146.464172,310.920471 146.550079,309.815277 
	C146.832932,306.176697 146.262939,302.417633 146.939819,298.880768 
	C147.500946,295.948730 148.855301,292.837799 150.767334,290.573914 
	C153.517517,287.317719 157.512802,286.464783 161.690277,287.966187 
	C165.890228,289.475647 165.801575,293.122253 165.833435,296.665710 
	C165.842392,297.663452 165.835938,298.661316 165.836899,300.615082 
M209.287903,285.167450 
	C209.557404,288.631653 209.965729,292.091949 210.062805,295.560974 
	C210.197418,300.371368 210.009262,305.191345 210.170410,310.000122 
	C210.204666,311.022156 211.147049,312.013824 211.671051,313.019470 
	C212.332642,311.971527 213.467499,310.967316 213.569122,309.867615 
	C213.904236,306.241394 213.587921,302.546478 214.031433,298.940613 
	C214.819626,292.532166 219.182968,288.472870 224.265244,288.912720 
	C224.518234,288.934601 224.801468,288.606812 225.313599,288.292877 
	C225.230927,287.005341 225.140320,285.594360 224.957901,282.753876 
	C220.761398,285.305969 217.382431,287.360901 213.892548,289.483307 
	C213.421738,287.645477 214.374084,283.990204 209.287903,285.167450 
z"/>
<path fill="#4B2F2F" opacity="1.000000" stroke="none" 
	d="
M216.108505,253.134674 
	C204.322723,262.961731 190.568283,262.863983 176.913818,261.656219 
	C166.999832,260.779327 157.175232,258.553955 148.650253,252.518097 
	C131.067505,264.170898 111.942039,265.052246 92.094971,260.924133 
	C83.278763,259.090393 78.537834,252.378281 73.995888,245.548828 
	C72.257607,242.935059 70.567459,240.125732 69.703613,237.158585 
	C69.226906,235.521225 70.015068,232.912766 71.198990,231.642136 
	C71.816231,230.979691 75.444931,231.675919 76.148392,232.767258 
	C82.477600,242.586197 91.120911,241.027496 100.041603,237.962357 
	C109.915642,234.569672 119.701195,230.920029 129.546143,227.441315 
	C130.623581,227.060608 131.904083,226.739227 132.978241,226.953247 
	C137.789062,227.911850 142.558716,229.920471 147.344269,229.923492 
	C152.063187,229.926453 156.803421,227.044693 161.497131,227.146271 
	C165.971451,227.243103 170.394180,229.568436 174.845993,230.892456 
	C184.394424,233.732269 193.876816,236.834595 203.524902,239.283142 
	C209.060913,240.688110 214.766663,241.083145 218.136246,234.467041 
	C218.654205,233.450043 221.650970,232.710953 222.798950,233.274399 
	C223.963120,233.845764 224.953262,236.257507 224.810242,237.747070 
	C224.216248,243.933380 221.772186,249.292664 216.108505,253.134674 
z"/>
<path fill="#4C3031" opacity="1.000000" stroke="none" 
	d="
M72.475861,148.511566 
	C59.592171,147.353699 47.121075,146.647415 34.770222,145.025482 
	C29.456131,144.327621 24.358232,141.822937 19.224014,139.967819 
	C15.278486,138.542191 12.906476,135.695862 12.750934,131.370590 
	C12.593876,127.003166 14.918096,123.711594 18.691431,122.372993 
	C26.635483,119.554825 34.714371,116.950424 42.929691,115.118080 
	C49.037300,113.755844 55.452831,113.287338 61.718384,113.371857 
	C64.057388,113.403412 67.826477,115.735886 68.360992,117.716248 
	C69.345131,121.362396 65.600639,121.658119 62.738247,122.163582 
	C51.855255,124.085365 40.995449,126.138458 30.126978,128.142471 
	C30.158213,128.879913 30.189447,129.617355 30.220682,130.354797 
	C33.644409,130.856506 37.053612,131.512390 40.494072,131.836487 
	C83.345703,135.872971 126.282257,135.741562 169.218079,133.917313 
	C179.614609,133.475571 189.943695,131.449738 200.304214,130.155655 
	C208.685196,129.108810 217.120102,128.376373 225.434677,126.944595 
	C235.843140,125.152245 244.496765,119.659706 252.610748,113.096352 
	C254.018906,111.957298 257.321686,111.347603 258.479004,112.206032 
	C259.709503,113.118736 260.453094,116.747604 259.619995,118.003731 
	C256.913330,122.084778 253.976791,126.460075 250.065765,129.210678 
	C238.966248,137.016937 226.523392,141.728424 212.842606,142.996033 
	C200.140671,144.172913 187.496399,146.456619 174.779861,146.895950 
	C143.007935,147.993622 111.209572,148.330353 79.421120,148.935852 
	C77.262772,148.976944 75.098640,148.713745 72.475861,148.511566 
z"/>
<path fill="#4C3131" opacity="1.000000" stroke="none" 
	d="
M185.318649,106.090057 
	C197.189972,102.382355 203.876205,93.094215 209.660263,83.046829 
	C219.025894,66.777977 222.231308,49.402882 218.101837,30.901413 
	C217.850296,29.774429 217.529953,28.623161 217.005692,27.604637 
	C215.772919,25.209677 215.350708,23.322182 218.678925,22.254229 
	C221.893661,21.222685 223.984222,21.963535 224.521790,25.403372 
	C225.771088,33.397621 228.023636,41.446213 227.789810,49.411732 
	C227.437180,61.425175 226.000992,73.216042 221.192780,84.880356 
	C213.013931,104.721550 199.095810,117.158783 179.398163,124.114029 
	C166.596008,128.634491 153.694916,131.837265 139.903992,129.404358 
	C136.567108,128.815689 132.939087,130.121506 129.488800,129.893219 
	C99.039024,127.878395 74.461357,114.821793 59.545528,87.991112 
	C50.089420,70.981415 49.319992,51.737617 54.908257,32.729115 
	C56.142349,28.531326 58.280834,25.325720 64.105354,27.904999 
	C63.045403,46.718376 59.785500,66.040222 70.682587,84.210236 
	C75.095535,92.998665 81.768982,98.730423 89.160988,103.821785 
	C101.211136,112.121513 115.060036,114.400505 129.140137,116.222900 
	C143.746246,118.113388 157.905548,115.784050 171.878448,112.072624 
	C176.558044,110.829651 180.849686,108.126030 185.318649,106.090057 
z"/>
<path fill="#4C3233" opacity="1.000000" stroke="none" 
	d="
M213.550537,172.498138 
	C216.597794,173.030075 219.221329,173.761566 221.855850,173.803543 
	C232.249741,173.969208 234.374908,182.769806 231.617111,190.388504 
	C228.694946,198.461243 225.486526,206.677109 217.161880,211.150970 
	C211.582825,214.149261 205.732346,215.875778 199.414917,214.259476 
	C192.193024,212.411774 184.922165,210.626877 177.912582,208.138580 
	C174.945084,207.085175 171.829834,204.816544 170.092972,202.222351 
	C163.977051,193.087570 155.706116,190.848984 145.562225,193.185516 
	C143.458817,193.670013 141.378006,194.309387 139.249084,194.612915 
	C136.022690,195.072937 134.687317,196.631943 133.923401,199.986298 
	C132.413452,206.616562 127.820412,211.006943 121.320412,212.972000 
	C103.177803,218.456787 86.664299,214.081970 71.892853,203.281372 
	C65.491394,198.600723 61.278175,191.545227 59.155949,183.637177 
	C58.282623,180.382889 58.507175,177.859848 62.224800,175.834351 
	C72.196053,170.401627 82.823372,167.783768 94.003044,166.818390 
	C102.113541,166.118088 110.235199,165.466904 118.310173,164.459534 
	C125.397133,163.575409 127.846710,164.574341 131.015930,171.045303 
	C132.029739,173.115326 132.751816,175.355927 133.368576,177.584564 
	C133.937668,179.640976 134.186630,181.785965 134.439850,183.153488 
	C144.889648,183.153488 155.049561,183.153488 165.802292,183.153488 
	C166.041672,181.510101 166.521545,178.976303 166.761063,176.419983 
	C167.333969,170.305389 170.579407,166.743515 176.699448,166.958832 
	C182.816376,167.174057 188.925369,168.133560 194.994019,169.055374 
	C201.068192,169.978043 207.088150,171.257690 213.550537,172.498138 
M118.767990,172.293686 
	C117.196663,171.865646 115.584938,170.960526 114.060799,171.089615 
	C106.183205,171.756836 98.185043,172.035904 90.506508,173.717667 
	C83.277138,175.301041 76.348686,178.346695 69.404343,181.048462 
	C68.352737,181.457611 67.081329,183.759445 67.383621,184.724899 
	C68.251282,187.496048 69.399200,190.447433 71.278267,192.590210 
	C82.985359,205.940292 98.073143,209.973511 115.008186,206.738998 
	C118.660049,206.041519 122.778793,202.706345 124.771217,199.425476 
	C129.389359,191.820892 126.415573,179.801620 118.767990,172.293686 
M185.844711,174.669128 
	C185.542114,174.532150 185.251602,174.319763 184.935181,174.269043 
	C173.480087,172.433044 172.947479,172.834503 173.025864,184.178238 
	C173.083801,192.563126 175.416672,199.865219 183.920166,203.353271 
	C187.035568,204.631165 190.475632,205.362320 193.835876,205.748016 
	C201.012299,206.571808 208.787460,208.282959 214.715225,202.965195 
	C219.124954,199.009232 222.581192,193.768265 225.626953,188.606812 
	C227.174698,185.983963 226.806595,182.683060 222.134949,181.850739 
	C210.295563,179.741394 198.528183,177.227829 185.844711,174.669128 
z"/>
<path fill="#4B2E2E" opacity="1.000000" stroke="none" 
	d="
M104.208405,35.089607 
	C106.913193,31.076921 109.617981,27.064238 112.650696,23.255058 
	C119.007141,30.425919 125.003349,37.421959 131.120865,44.310268 
	C131.653625,44.910149 132.984863,44.800877 134.027283,45.408806 
	C135.380692,49.893173 136.442963,54.069065 137.961716,58.071758 
	C142.949799,71.217911 143.708252,84.618225 140.230499,98.155220 
	C137.915741,107.165321 133.088669,109.373550 124.728394,105.585419 
	C122.759438,104.693260 121.343803,102.643547 119.523079,101.335983 
	C118.485519,100.590851 116.711578,98.425636 116.356392,101.825623 
	C116.001724,101.100693 115.758682,100.566833 115.824524,99.704620 
	C115.445625,98.527351 114.757843,97.678429 113.914856,96.525200 
	C113.343788,96.152954 112.927925,96.085030 112.311951,96.002045 
	C111.739639,95.847656 111.367447,95.708336 111.420830,95.355637 
	C110.865585,93.431007 109.884758,91.719757 108.874275,89.680443 
	C107.933479,88.150681 107.022331,86.948975 106.080910,85.386192 
	C105.379128,83.501678 104.707619,81.978241 103.869560,80.302231 
	C103.486595,79.608604 103.270187,79.067566 103.009140,78.119919 
	C101.925194,74.137985 100.885880,70.562660 99.899734,66.667389 
	C99.678429,65.785393 99.403961,65.223343 99.144012,64.258606 
	C99.798866,57.817970 100.209717,51.743423 101.165062,45.755753 
	C101.743431,42.130795 103.165436,38.640438 104.208405,35.089607 
z"/>
<path fill="#4A2E2F" opacity="1.000000" stroke="none" 
	d="
M115.515640,100.032967 
	C115.758682,100.566833 116.001724,101.100693 116.628883,102.061005 
	C117.940063,103.434151 119.084244,104.254639 119.729729,105.365028 
	C120.309982,106.363190 120.941666,108.101891 120.478882,108.758324 
	C119.755112,109.784927 117.984818,110.913696 116.907013,110.706032 
	C112.119781,109.783676 107.298500,108.746559 102.714149,107.118477 
	C90.013626,102.608009 80.634468,93.840973 72.997887,83.004440 
	C66.876961,72.006493 65.232651,60.151810 65.948364,47.751049 
	C66.423294,39.522373 70.570320,34.882084 78.871857,34.979801 
	C81.071228,35.773972 82.525223,36.399761 83.988281,37.010712 
	C83.997360,36.995872 83.965660,37.011940 83.891388,37.491341 
	C85.064720,38.311649 86.312309,38.652550 87.653992,39.310097 
	C89.166992,41.229301 90.585915,42.831863 91.542419,44.717068 
	C92.071747,46.013088 93.063492,47.026466 94.052063,48.003746 
	C94.048897,47.967655 93.980209,47.944565 93.579819,48.185757 
	C94.540794,53.113621 96.003716,57.773804 97.235146,62.494373 
	C98.478996,67.262543 99.413040,72.112228 100.695053,76.868996 
	C100.887123,77.581642 102.238632,77.981804 103.053780,78.526520 
	C103.270187,79.067566 103.486595,79.608604 103.407700,80.244995 
	C103.986000,82.753662 104.859612,85.166985 105.729332,87.849747 
	C106.208160,88.869095 106.690872,89.619003 107.327087,90.694519 
	C108.652145,92.536415 109.823692,94.052719 110.995247,95.569016 
	C111.367447,95.708336 111.739639,95.847656 112.092102,96.362885 
	C112.443184,97.146683 112.814003,97.554581 113.312943,98.275635 
	C114.132591,99.070190 114.824112,99.551582 115.515640,100.032967 
z"/>
<path fill="#4B2F2F" opacity="1.000000" stroke="none" 
	d="
M212.885513,35.306812 
	C218.514572,45.627705 216.604599,56.383064 212.584671,66.145241 
	C208.587845,75.851357 202.598175,84.855438 196.613464,93.570671 
	C193.919785,97.493332 189.114029,99.965630 184.736893,103.468109 
	C178.411209,107.670898 172.195618,110.221336 165.101624,110.023125 
	C162.032135,109.937363 159.927658,108.776955 160.414642,105.075188 
	C162.964310,102.270996 165.082886,99.508842 167.501190,97.040306 
	C177.062256,87.280655 181.665405,75.386833 183.114182,61.665184 
	C185.192261,56.763191 186.584610,51.908092 189.057892,47.686234 
	C192.430725,41.928829 196.627548,36.654118 200.471085,31.172455 
	C205.638718,25.684273 207.732498,31.966616 211.403976,34.302071 
	C212.194458,34.897449 212.539978,35.102131 212.885513,35.306812 
z"/>
<path fill="#A68D7E" opacity="1.000000" stroke="none" 
	d="
M143.013977,13.005950 
	C146.945450,9.189283 151.553635,10.317285 154.739822,13.091717 
	C161.313568,18.815943 167.128769,25.411268 173.547272,32.257874 
	C178.271408,41.997726 183.037399,51.042439 180.999939,62.004150 
	C180.117615,65.519363 179.491486,68.798035 178.535736,72.222046 
	C177.087296,72.514717 175.751526,73.132668 174.884766,72.733124 
	C169.189758,70.107994 163.410843,67.577980 158.018845,64.405807 
	C152.098190,60.922623 146.564407,56.781834 140.610718,52.648392 
	C139.706284,49.309555 138.687241,46.275997 138.466934,43.185497 
	C137.727676,32.815399 136.360077,22.285385 143.013977,13.005950 
z"/>
<path fill="#4D3233" opacity="1.000000" stroke="none" 
	d="
M254.966431,61.113647 
	C253.668518,54.277832 249.409729,50.184776 242.969559,49.194454 
	C240.836700,48.866474 238.561096,48.897270 236.612747,48.113091 
	C234.954620,47.445728 232.706161,45.995499 232.488281,44.612804 
	C232.256241,43.140247 233.725708,40.470749 235.121475,39.864464 
	C238.000229,38.614014 241.400085,37.589760 244.451355,37.880562 
	C256.842957,39.061523 264.413727,46.730518 269.102600,57.673923 
	C271.242371,62.667931 270.564087,67.946030 267.419098,71.917229 
	C262.716766,77.854927 257.513947,83.626884 251.611252,88.321747 
	C245.036423,93.551193 237.378204,97.402145 230.311462,102.035988 
	C226.432251,104.579681 222.886993,107.632607 219.008438,110.177467 
	C217.675400,111.052124 215.787964,111.081841 214.153778,111.497559 
	C214.125931,109.692734 213.438324,107.539284 214.177780,106.139915 
	C218.822662,97.349762 226.906082,91.890945 234.405212,85.852333 
	C239.695511,81.592369 245.179520,77.432037 249.737503,72.457932 
	C252.351196,69.605621 253.288071,65.216766 254.966431,61.113647 
z"/>
<path fill="#F8F3F1" opacity="1.000000" stroke="none" 
	d="
M142.596329,13.002913 
	C136.360077,22.285385 137.727676,32.815399 138.466934,43.185497 
	C138.687241,46.275997 139.706284,49.309555 140.688660,53.038994 
	C143.753113,63.654766 146.223190,73.654808 144.926758,84.095901 
	C144.213577,89.839737 143.324188,95.570419 142.254593,101.258209 
	C141.539841,105.059059 143.254410,106.816734 146.596161,107.781708 
	C151.570236,109.218025 155.172211,106.372063 159.197052,104.125664 
	C159.678253,104.599243 159.899780,104.925690 160.121292,105.252136 
	C159.927658,108.776955 162.032135,109.937363 165.101624,110.023125 
	C172.195618,110.221336 178.411209,107.670898 184.557007,103.733482 
	C184.973495,104.037582 185.040161,104.448402 185.212738,105.474640 
	C180.849686,108.126030 176.558044,110.829651 171.878448,112.072624 
	C157.905548,115.784050 143.746246,118.113388 129.140137,116.222900 
	C115.060036,114.400505 101.211136,112.121513 89.160988,103.821785 
	C81.768982,98.730423 75.095535,92.998665 70.998001,84.379768 
	C71.477516,83.859413 72.053253,83.678368 72.813438,83.250877 
	C80.634468,93.840973 90.013626,102.608009 102.714149,107.118477 
	C107.298500,108.746559 112.119781,109.783676 116.907013,110.706032 
	C117.984818,110.913696 119.755112,109.784927 120.478882,108.758324 
	C120.941666,108.101891 120.309982,106.363190 119.729729,105.365028 
	C119.084244,104.254639 117.940063,103.434151 116.740501,102.252075 
	C116.711578,98.425636 118.485519,100.590851 119.523079,101.335983 
	C121.343803,102.643547 122.759438,104.693260 124.728394,105.585419 
	C133.088669,109.373550 137.915741,107.165321 140.230499,98.155220 
	C143.708252,84.618225 142.949799,71.217911 137.961716,58.071758 
	C136.442963,54.069065 135.380692,49.893173 134.094116,45.009865 
	C134.253143,40.157734 134.025681,36.024971 134.693481,32.042332 
	C135.763336,25.662207 137.426468,19.381571 138.838837,13.058884 
	C139.952118,13.039214 141.065399,13.019546 142.596329,13.002913 
z"/>
<path fill="#7E6660" opacity="1.000000" stroke="none" 
	d="
M138.584290,12.910034 
	C137.426468,19.381571 135.763336,25.662207 134.693481,32.042332 
	C134.025681,36.024971 134.253143,40.157734 134.012039,44.622066 
	C132.984863,44.800877 131.653625,44.910149 131.120865,44.310268 
	C125.003349,37.421959 119.007141,30.425919 112.960655,23.090113 
	C113.020599,22.367754 113.098518,22.013844 113.515060,21.261238 
	C114.631691,19.963064 115.409698,19.063585 116.187698,18.164104 
	C116.187698,18.164104 116.033920,18.075096 116.391449,18.060200 
	C117.486267,17.358578 118.223541,16.671852 118.960823,15.985125 
	C123.364418,14.301526 127.768005,12.617927 132.948120,10.951735 
	C134.484055,10.967457 135.243469,10.965774 136.002899,10.964092 
	C136.778519,11.563123 137.554123,12.162152 138.584290,12.910034 
z"/>
<path fill="#554445" opacity="1.000000" stroke="none" 
	d="
M51.115341,309.586609 
	C49.777107,310.661377 48.702045,312.017365 47.626984,313.373352 
	C47.003281,313.185181 46.379574,312.997009 45.755867,312.808838 
	C45.755867,299.509827 45.755867,286.210815 45.755867,272.325775 
	C46.150768,272.284149 47.500965,272.141846 49.389477,271.942841 
	C49.389477,277.727631 49.389477,283.136871 49.389477,288.200775 
	C53.440472,286.712830 57.251335,284.059662 60.823044,284.349823 
	C64.474792,284.646515 68.759163,287.073669 71.230972,289.907593 
	C76.342247,295.767670 74.944946,305.749176 69.277939,310.732544 
	C63.912426,315.450745 57.478249,315.139893 51.115341,309.586609 
M58.204422,287.518616 
	C50.765697,290.193420 47.553192,297.390656 50.742973,304.235138 
	C53.536129,310.228607 59.909470,312.507019 65.216232,309.409180 
	C71.266693,305.877197 73.151726,297.384338 68.286217,291.687988 
	C66.259407,289.315094 62.127777,288.739990 58.204422,287.518616 
z"/>
<path fill="#4D3B3D" opacity="1.000000" stroke="none" 
	d="
M255.298553,309.197449 
	C255.880630,310.393860 256.312134,311.185089 256.743622,311.976349 
	C255.328094,312.423767 253.912567,312.871216 252.104004,313.442871 
	C251.934921,311.443726 251.821838,310.106781 251.686325,308.504517 
	C243.735275,315.356049 236.789703,315.721619 231.260727,309.884247 
	C225.847702,304.169312 225.730774,294.308624 231.006790,288.468445 
	C236.493683,282.394836 243.260925,282.629120 252.156006,289.759827 
	C251.778564,283.754913 251.440598,278.377869 251.063202,272.373810 
	C251.692322,272.318512 253.154312,272.190002 255.147964,272.014709 
	C255.147964,284.592621 255.147964,296.692474 255.298553,309.197449 
M232.090332,292.804108 
	C231.567551,294.358276 230.808655,295.876282 230.564117,297.473083 
	C229.657959,303.389343 233.343063,309.121979 238.775604,310.509888 
	C243.598480,311.742035 248.654755,309.019623 250.802795,304.034119 
	C253.165146,298.551208 251.083084,291.424286 246.312943,288.665436 
	C241.434906,285.844177 236.470673,287.092560 232.090332,292.804108 
z"/>
<path fill="#8C7972" opacity="1.000000" stroke="none" 
	d="
M112.496620,298.316833 
	C118.914192,296.997772 125.017601,295.904816 132.081787,294.639771 
	C131.130005,292.790771 130.444351,289.401917 128.983566,289.026123 
	C125.339317,288.088593 121.342964,288.453827 117.487396,288.439453 
	C116.143517,288.434448 114.798065,288.849518 113.453331,289.072754 
	C114.354820,287.763916 115.105026,285.489288 116.185028,285.320160 
	C120.038994,284.716461 124.092407,284.245605 127.906166,284.818115 
	C132.540436,285.513794 134.906540,288.951782 134.963928,293.745178 
	C134.989807,295.906586 134.908386,298.072083 135.012177,300.229156 
	C135.204544,304.226898 135.497299,308.219818 135.776108,312.658142 
	C135.813782,312.648651 134.688858,313.253906 134.365158,312.964111 
	C130.584045,309.579346 127.458122,313.419098 124.045700,313.628540 
	C120.707756,313.833466 116.948967,313.519165 113.984848,312.130707 
	C108.178207,309.410736 107.729622,304.075500 112.496620,298.316833 
M116.809464,299.841461 
	C112.210213,302.411438 111.256584,305.376678 114.077827,308.335144 
	C116.819107,311.209717 123.601395,311.485748 128.191162,309.012207 
	C132.478363,306.701752 132.279816,303.185883 131.151474,298.830383 
	C126.505081,299.096130 122.047127,299.351105 116.809464,299.841461 
z"/>
<path fill="#4F3C3E" opacity="1.000000" stroke="none" 
	d="
M102.566574,294.599915 
	C96.698357,300.539001 89.525612,300.524231 82.309212,300.037628 
	C82.196175,308.595001 91.246315,313.267242 99.170555,309.108765 
	C100.402390,308.462311 101.859734,308.245605 103.375198,308.361237 
	C99.872032,313.758392 94.129105,315.306061 88.207352,313.151062 
	C82.127068,310.938416 78.111229,305.356995 78.097183,299.099457 
	C78.082779,292.682068 82.355820,286.873230 88.592926,284.831390 
	C95.282013,282.641602 101.047638,284.771820 105.987625,291.416962 
	C104.953903,292.384644 103.895363,293.375580 102.566574,294.599915 
M100.566528,289.937469 
	C92.282631,284.838287 84.150246,287.788452 82.265701,296.851013 
	C89.359947,296.970673 96.571754,297.942902 100.566528,289.937469 
z"/>
<path fill="#4E3D3E" opacity="1.000000" stroke="none" 
	d="
M199.719696,307.632751 
	C203.742935,309.935577 200.375427,310.880981 199.134735,311.713654 
	C193.340637,315.602234 185.348053,314.582611 180.427063,309.527100 
	C175.309418,304.269562 174.714340,296.325989 178.989243,290.333862 
	C183.155746,284.493683 190.693771,282.253876 197.113510,285.368225 
	C199.700302,286.623077 201.843643,288.791992 204.288376,290.619324 
	C197.846970,299.023102 189.695953,301.408600 180.007965,299.907196 
	C179.863449,304.811554 182.455673,307.415497 185.917282,309.341949 
	C190.772232,312.043823 195.198257,310.744324 199.719696,307.632751 
M183.683243,290.087433 
	C182.334839,292.134430 180.986435,294.181458 179.362228,296.647156 
	C187.538666,297.399933 194.355286,297.345184 199.202744,290.866913 
	C194.132416,286.412354 190.690887,286.163452 183.683243,290.087433 
z"/>
<path fill="#4C3334" opacity="1.000000" stroke="none" 
	d="
M92.004837,44.434425 
	C90.585915,42.831863 89.166992,41.229301 87.364792,39.047516 
	C85.976227,37.982838 84.970940,37.497387 83.965660,37.011940 
	C83.965660,37.011940 83.997360,36.995872 84.221558,36.708191 
	C82.680351,35.174595 80.914940,33.928677 79.149536,32.682755 
	C78.038513,30.019506 79.289566,27.972466 81.756721,28.226295 
	C88.397873,28.909557 94.985832,30.170179 101.551903,31.426382 
	C102.184975,31.547497 102.517998,33.236877 102.601730,34.753681 
	C100.575142,40.153801 98.937134,44.998486 97.166382,50.235783 
	C95.947853,49.359520 94.964035,48.652042 93.980209,47.944565 
	C93.980209,47.944565 94.048897,47.967655 94.006363,47.652679 
	C93.310829,46.369946 92.657829,45.402184 92.004837,44.434425 
z"/>
<path fill="#544243" opacity="1.000000" stroke="none" 
	d="
M165.836731,300.137085 
	C165.835938,298.661316 165.842392,297.663452 165.833435,296.665710 
	C165.801575,293.122253 165.890228,289.475647 161.690277,287.966187 
	C157.512802,286.464783 153.517517,287.317719 150.767334,290.573914 
	C148.855301,292.837799 147.500946,295.948730 146.939819,298.880768 
	C146.262939,302.417633 146.832932,306.176697 146.550079,309.815277 
	C146.464172,310.920471 145.341385,311.945007 144.693512,313.006500 
	C144.169067,312.001312 143.232346,311.012360 143.191910,309.988068 
	C143.021439,305.670959 143.220642,301.340088 143.086304,297.020416 
	C142.971161,293.317749 142.586227,289.623505 142.280060,285.360992 
	C143.092239,285.254944 144.438110,285.079193 146.080399,284.864746 
	C146.443253,286.646271 146.748779,288.146423 147.139526,290.064941 
	C150.920059,286.020569 154.903976,283.246796 160.436157,284.187134 
	C165.888519,285.113831 168.914917,288.501801 169.064316,294.038330 
	C169.140564,296.863434 168.941528,299.700958 169.118896,302.516998 
	C169.326538,305.813385 169.808563,309.092468 170.212952,312.753967 
	C169.316879,312.842743 167.899918,312.983093 165.836899,313.187439 
	C165.836899,308.808777 165.836899,304.711914 165.836731,300.137085 
z"/>
<path fill="#4D3434" opacity="1.000000" stroke="none" 
	d="
M175.942764,31.998215 
	C181.402634,27.513454 187.893173,26.029453 194.705978,26.141171 
	C195.826797,26.159548 196.906845,28.665510 197.759247,30.522430 
	C192.795258,36.672600 188.077774,42.322155 183.338379,47.997944 
	C180.840622,42.594265 178.391693,37.296238 175.942764,31.998215 
z"/>
<path fill="#594749" opacity="1.000000" stroke="none" 
	d="
M209.664673,285.085938 
	C214.374084,283.990204 213.421738,287.645477 213.892548,289.483307 
	C217.382431,287.360901 220.761398,285.305969 224.957901,282.753876 
	C225.140320,285.594360 225.230927,287.005341 225.313599,288.292877 
	C224.801468,288.606812 224.518234,288.934601 224.265244,288.912720 
	C219.182968,288.472870 214.819626,292.532166 214.031433,298.940613 
	C213.587921,302.546478 213.904236,306.241394 213.569122,309.867615 
	C213.467499,310.967316 212.332642,311.971527 211.671051,313.019470 
	C211.147049,312.013824 210.204666,311.022156 210.170410,310.000122 
	C210.009262,305.191345 210.197418,300.371368 210.062805,295.560974 
	C209.965729,292.091949 209.557404,288.631653 209.664673,285.085938 
z"/>
<path fill="#F7F0EE" opacity="1.000000" stroke="none" 
	d="
M175.566620,32.007889 
	C178.391693,37.296238 180.840622,42.594265 183.338379,47.997944 
	C188.077774,42.322155 192.795258,36.672600 197.762589,30.855122 
	C198.422165,30.767410 198.831879,30.847618 199.856354,31.050140 
	C196.627548,36.654118 192.430725,41.928829 189.057892,47.686234 
	C186.584610,51.908092 185.192261,56.763191 182.699921,61.614044 
	C181.806473,61.850544 181.531296,61.809074 181.256134,61.767609 
	C183.037399,51.042439 178.271408,41.997726 173.763153,32.505436 
	C174.188690,32.101421 174.689590,32.059494 175.566620,32.007889 
z"/>
<path fill="#F8F3F1" opacity="1.000000" stroke="none" 
	d="
M93.579819,48.185757 
	C94.964035,48.652042 95.947853,49.359520 97.166382,50.235783 
	C98.937134,44.998486 100.575142,40.153801 102.536682,35.135815 
	C103.085091,34.981750 103.309975,35.000992 103.871635,35.054916 
	C103.165436,38.640438 101.743431,42.130795 101.165062,45.755753 
	C100.209717,51.743423 99.798866,57.817970 99.112358,64.581421 
	C99.326302,65.867065 99.586433,66.427200 99.846565,66.987335 
	C100.885880,70.562660 101.925194,74.137985 103.009140,78.119919 
	C102.238632,77.981804 100.887123,77.581642 100.695053,76.868996 
	C99.413040,72.112228 98.478996,67.262543 97.235146,62.494373 
	C96.003716,57.773804 94.540794,53.113621 93.579819,48.185757 
z"/>
<path fill="#F4EAE4" opacity="1.000000" stroke="none" 
	d="
M79.099266,33.030674 
	C80.914940,33.928677 82.680351,35.174595 84.212479,36.723034 
	C82.525223,36.399761 81.071228,35.773972 79.299347,34.965267 
	C79.003967,34.314434 79.026482,33.846512 79.099266,33.030674 
z"/>
<path fill="#F8F3F1" opacity="1.000000" stroke="none" 
	d="
M115.813766,18.114040 
	C115.409698,19.063585 114.631691,19.963064 113.582954,20.992237 
	C111.984650,18.850492 112.138565,18.629280 115.813766,18.114040 
z"/>
<path fill="#F8F3F1" opacity="1.000000" stroke="none" 
	d="
M135.955734,10.640810 
	C135.243469,10.965774 134.484055,10.967457 133.354584,10.877317 
	C133.959213,10.629505 134.933884,10.473516 135.955734,10.640810 
z"/>
<path fill="#F8F3F1" opacity="1.000000" stroke="none" 
	d="
M118.598587,15.990135 
	C118.223541,16.671852 117.486267,17.358578 116.452171,18.125051 
	C116.849022,17.468248 117.542694,16.731697 118.598587,15.990135 
z"/>
<path fill="#F8F3F1" opacity="1.000000" stroke="none" 
	d="
M212.778946,35.006439 
	C212.539978,35.102131 212.194458,34.897449 211.709167,34.421356 
	C211.937073,34.335320 212.304718,34.520695 212.778946,35.006439 
z"/>
<path fill="#FDFBFB" opacity="1.000000" stroke="none" 
	d="
M119.036789,172.584351 
	C126.415573,179.801620 129.389359,191.820892 124.771217,199.425476 
	C122.778793,202.706345 118.660049,206.041519 115.008186,206.738998 
	C98.073143,209.973511 82.985359,205.940292 71.278267,192.590210 
	C69.399200,190.447433 68.251282,187.496048 67.383621,184.724899 
	C67.081329,183.759445 68.352737,181.457611 69.404343,181.048462 
	C76.348686,178.346695 83.277138,175.301041 90.506508,173.717667 
	C98.185043,172.035904 106.183205,171.756836 114.060799,171.089615 
	C115.584938,170.960526 117.196663,171.865646 119.036789,172.584351 
M78.628006,188.368881 
	C79.094559,190.246933 79.561111,192.124985 80.027664,194.003036 
	C81.312340,193.623367 83.512199,193.530197 83.735085,192.818146 
	C85.337181,187.700180 88.697510,186.909286 93.407761,187.847946 
	C94.549637,188.075485 96.017326,186.668030 97.335205,186.012390 
	C96.468636,184.644821 95.920006,182.635544 94.680206,182.021286 
	C89.446861,179.428436 83.208061,181.833221 78.628006,188.368881 
z"/>
<path fill="#FCFBFB" opacity="1.000000" stroke="none" 
	d="
M186.288330,174.772644 
	C198.528183,177.227829 210.295563,179.741394 222.134949,181.850739 
	C226.806595,182.683060 227.174698,185.983963 225.626953,188.606812 
	C222.581192,193.768265 219.124954,199.009232 214.715225,202.965195 
	C208.787460,208.282959 201.012299,206.571808 193.835876,205.748016 
	C190.475632,205.362320 187.035568,204.631165 183.920166,203.353271 
	C175.416672,199.865219 173.083801,192.563126 173.025864,184.178238 
	C172.947479,172.834503 173.480087,172.433044 184.935181,174.269043 
	C185.251602,174.319763 185.542114,174.532150 186.288330,174.772644 
M192.491943,181.499863 
	C187.763046,179.920670 183.575012,181.092926 180.294708,184.595413 
	C179.357803,185.595779 179.699081,187.793213 179.454254,189.441742 
	C181.058258,189.393387 182.691788,189.519409 184.259003,189.253922 
	C186.369064,188.896484 188.406448,188.114304 190.515396,187.744812 
	C192.341553,187.424866 194.223984,187.426163 196.081543,187.285477 
	C195.115005,185.479340 194.148483,183.673203 192.491943,181.499863 
z"/>
<path fill="#F8F3F1" opacity="1.000000" stroke="none" 
	d="
M105.733215,87.580315 
	C104.859612,85.166985 103.986000,82.753662 103.574249,80.397568 
	C104.707619,81.978241 105.379128,83.501678 105.992462,85.845688 
	C105.867256,86.970963 105.800232,87.275642 105.733215,87.580315 
z"/>
<path fill="#F5EAE9" opacity="1.000000" stroke="none" 
	d="
M105.729332,87.849747 
	C105.800232,87.275642 105.867256,86.970963 106.022736,86.206772 
	C107.022331,86.948975 107.933479,88.150681 108.437416,89.750038 
	C107.744667,90.221436 107.459129,90.295181 107.173584,90.368919 
	C106.690872,89.619003 106.208160,88.869095 105.729332,87.849747 
z"/>
<path fill="#F8F3F1" opacity="1.000000" stroke="none" 
	d="
M107.327087,90.694519 
	C107.459129,90.295181 107.744667,90.221436 108.467072,90.078102 
	C109.884758,91.719757 110.865585,93.431007 111.420830,95.355637 
	C109.823692,94.052719 108.652145,92.536415 107.327087,90.694519 
z"/>
<path fill="#F5EAE9" opacity="1.000000" stroke="none" 
	d="
M115.824524,99.704620 
	C114.824112,99.551582 114.132591,99.070190 113.513794,98.133224 
	C113.823006,97.437881 113.984184,97.155167 114.070053,96.829514 
	C114.757843,97.678429 115.445625,98.527351 115.824524,99.704620 
z"/>
<path fill="#F8F3F1" opacity="1.000000" stroke="none" 
	d="
M113.914856,96.525200 
	C113.984184,97.155167 113.823006,97.437881 113.385666,97.820068 
	C112.814003,97.554581 112.443184,97.146683 112.292213,96.377945 
	C112.927925,96.085030 113.343788,96.152954 113.914856,96.525200 
z"/>
<path fill="#F5EAE9" opacity="1.000000" stroke="none" 
	d="
M99.899734,66.667389 
	C99.586433,66.427200 99.326302,65.867065 99.097824,64.984116 
	C99.403961,65.223343 99.678429,65.785393 99.899734,66.667389 
z"/>
<path fill="#F8F3F1" opacity="1.000000" stroke="none" 
	d="
M83.891388,37.491341 
	C84.970940,37.497387 85.976227,37.982838 87.270706,38.730869 
	C86.312309,38.652550 85.064720,38.311649 83.891388,37.491341 
z"/>
<path fill="#F8F3F1" opacity="1.000000" stroke="none" 
	d="
M91.542419,44.717068 
	C92.657829,45.402184 93.310829,46.369946 94.009529,47.688774 
	C93.063492,47.026466 92.071747,46.013088 91.542419,44.717068 
z"/>
<path fill="#F4EAE4" opacity="1.000000" stroke="none" 
	d="
M180.999939,62.004150 
	C181.531296,61.809074 181.806473,61.850544 182.495911,61.943161 
	C181.665405,75.386833 177.062256,87.280655 167.501190,97.040306 
	C165.082886,99.508842 162.964310,102.270996 160.414642,105.075180 
	C159.899780,104.925690 159.678253,104.599243 159.312103,103.806831 
	C161.294540,100.814087 163.441681,98.303902 165.544769,95.757324 
	C171.403030,88.663704 177.531326,81.717102 178.865341,72.076706 
	C179.491486,68.798035 180.117615,65.519363 180.999939,62.004150 
z"/>
<path fill="#8B6D61" opacity="1.000000" stroke="none" 
	d="
M178.535736,72.222046 
	C177.531326,81.717102 171.403030,88.663704 165.544769,95.757324 
	C163.441681,98.303902 161.294540,100.814087 159.052429,103.659706 
	C155.172211,106.372063 151.570236,109.218025 146.596161,107.781708 
	C143.254410,106.816734 141.539841,105.059059 142.254593,101.258209 
	C143.324188,95.570419 144.213577,89.839737 144.926758,84.095901 
	C146.223190,73.654808 143.753113,63.654766 140.940002,53.318184 
	C146.564407,56.781834 152.098190,60.922623 158.018845,64.405807 
	C163.410843,67.577980 169.189758,70.107994 174.884766,72.733124 
	C175.751526,73.132668 177.087296,72.514717 178.535736,72.222046 
z"/>
<path fill="#FAF8F8" opacity="1.000000" stroke="none" 
	d="
M58.578827,287.432983 
	C62.127777,288.739990 66.259407,289.315094 68.286217,291.687988 
	C73.151726,297.384338 71.266693,305.877197 65.216232,309.409180 
	C59.909470,312.507019 53.536129,310.228607 50.742973,304.235138 
	C47.553192,297.390656 50.765697,290.193420 58.578827,287.432983 
z"/>
<path fill="#FAF8F8" opacity="1.000000" stroke="none" 
	d="
M232.280426,292.475281 
	C236.470673,287.092560 241.434906,285.844177 246.312943,288.665436 
	C251.083084,291.424286 253.165146,298.551208 250.802795,304.034119 
	C248.654755,309.019623 243.598480,311.742035 238.775604,310.509888 
	C233.343063,309.121979 229.657959,303.389343 230.564117,297.473083 
	C230.808655,295.876282 231.567551,294.358276 232.280426,292.475281 
z"/>
<path fill="#FBF7F5" opacity="1.000000" stroke="none" 
	d="
M117.199310,299.723755 
	C122.047127,299.351105 126.505081,299.096130 131.151474,298.830383 
	C132.279816,303.185883 132.478363,306.701752 128.191162,309.012207 
	C123.601395,311.485748 116.819107,311.209717 114.077827,308.335144 
	C111.256584,305.376678 112.210213,302.411438 117.199310,299.723755 
z"/>
<path fill="#F8F3F1" opacity="1.000000" stroke="none" 
	d="
M100.818092,290.221558 
	C96.571754,297.942902 89.359947,296.970673 82.265701,296.851013 
	C84.150246,287.788452 92.282631,284.838287 100.818092,290.221558 
z"/>
<path fill="#F8F3F1" opacity="1.000000" stroke="none" 
	d="
M183.997894,289.870178 
	C190.690887,286.163452 194.132416,286.412354 199.202744,290.866913 
	C194.355286,297.345184 187.538666,297.399933 179.362228,296.647156 
	C180.986435,294.181458 182.334839,292.134430 183.997894,289.870178 
z"/>
<path fill="#50393A" opacity="1.000000" stroke="none" 
	d="
M78.788475,188.024292 
	C83.208061,181.833221 89.446861,179.428436 94.680206,182.021286 
	C95.920006,182.635544 96.468636,184.644821 97.335205,186.012390 
	C96.017326,186.668030 94.549637,188.075485 93.407761,187.847946 
	C88.697510,186.909286 85.337181,187.700180 83.735085,192.818146 
	C83.512199,193.530197 81.312340,193.623367 80.027664,194.003036 
	C79.561111,192.124985 79.094559,190.246933 78.788475,188.024292 
z"/>
<path fill="#50393A" opacity="1.000000" stroke="none" 
	d="
M192.836945,181.683456 
	C194.148483,183.673203 195.115005,185.479340 196.081543,187.285477 
	C194.223984,187.426163 192.341553,187.424866 190.515396,187.744812 
	C188.406448,188.114304 186.369064,188.896484 184.259003,189.253922 
	C182.691788,189.519409 181.058258,189.393387 179.454254,189.441742 
	C179.699081,187.793213 179.357803,185.595779 180.294708,184.595413 
	C183.575012,181.092926 187.763046,179.920670 192.836945,181.683456 
z"/>
</svg>