<svg version="1.1" id="Layer_1" xmlns="http://www.w3.org/2000/svg" xmlns:xlink="http://www.w3.org/1999/xlink" x="0px" y="0px"
	 width="100%" viewBox="0 0 528 544" enable-background="new 0 0 528 544" xml:space="preserve">
<path fill="#000000" opacity="1.000000" stroke="none" 
	d="
M241.265366,333.609253 
	C237.831909,333.454803 234.837280,333.252808 231.846390,333.297974 
	C217.575211,333.513519 207.443192,326.908417 200.772186,314.564484 
	C199.508667,312.226471 198.263229,309.866974 197.208542,307.431183 
	C196.185928,305.069489 196.373093,302.688019 198.778198,301.288879 
	C201.072510,299.954193 203.548294,300.404114 204.960190,302.650787 
	C210.191498,310.975006 217.725510,310.795441 225.608353,308.113190 
	C233.938766,305.278595 242.010010,301.691162 250.291565,298.701569 
	C258.334778,295.797974 266.493988,294.823425 274.484833,299.017059 
	C276.413971,300.029480 278.023865,299.270874 279.689850,298.506775 
	C285.099335,296.025665 290.292633,296.217529 296.086090,298.054443 
	C308.415314,301.963623 320.511169,306.764130 333.330841,309.023071 
	C338.188416,309.878998 342.570984,309.576782 345.296509,304.502014 
	C346.326721,302.583893 348.309875,301.843903 350.470978,302.472717 
	C352.761078,303.139099 353.418854,304.991394 353.306152,307.174225 
	C353.068970,311.766968 352.048279,316.283783 348.796875,319.573273 
	C343.882172,324.545502 338.449341,328.934753 331.335052,330.598328 
	C313.344055,334.805298 295.980438,333.014893 279.409760,324.890015 
	C276.839050,323.629547 275.319519,324.075897 273.125000,325.295074 
	C263.378052,330.709991 252.944519,333.753937 241.265366,333.609253 
z"/>
<path fill="#000000" opacity="1.000000" stroke="none" 
	d="
M262.009155,247.311462 
	C261.992035,252.456879 263.683563,254.039001 268.771301,252.813599 
	C276.706757,250.902344 284.861145,251.220215 293.208130,252.976791 
	C293.586151,250.315598 293.830597,248.031296 294.245636,245.778442 
	C295.502838,238.954010 299.695007,235.520691 306.589874,236.187759 
	C322.319977,237.709671 337.672821,241.574356 353.256348,244.044617 
	C359.098480,244.970673 362.646393,250.336517 361.081390,256.902588 
	C358.304169,268.554718 351.823914,281.900452 337.747162,284.696716 
	C333.221527,285.595703 328.837036,285.367004 324.403839,284.380920 
	C316.777344,282.684509 309.156158,281.074768 302.304840,276.967499 
	C298.582306,274.735901 296.627441,270.969635 293.733643,268.031128 
	C288.250549,262.463287 281.589966,262.640839 274.705902,263.565521 
	C272.572510,263.852112 270.501495,264.617279 268.367065,264.878052 
	C264.929382,265.298035 263.349060,267.091705 262.402954,270.464630 
	C260.521179,277.173248 255.886963,281.568329 249.194626,283.592377 
	C230.787903,289.159485 214.170319,284.395264 199.333801,273.506683 
	C192.664902,268.612335 188.400909,261.127533 186.346573,252.753815 
	C185.616501,249.777924 186.213943,247.620773 188.914429,245.953812 
	C198.621368,239.961929 209.549515,237.782211 220.541428,236.120575 
	C227.756226,235.029922 235.144669,235.141891 242.405960,234.292847 
	C255.066544,232.812439 258.101898,234.645889 262.009155,247.311462 
M204.243332,247.657684 
	C202.888412,248.298538 201.488220,248.859207 200.186569,249.594391 
	C195.034866,252.504089 194.785706,253.796265 197.481247,259.125610 
	C198.974777,262.078430 201.503357,264.019745 203.774506,266.137268 
	C215.151245,276.744507 228.799332,279.216034 243.573700,276.207642 
	C249.852707,274.929138 254.839844,268.782532 254.547256,262.962952 
	C254.096436,253.995209 251.173782,244.284821 244.551163,241.984161 
	C242.912613,241.414917 241.295013,241.414108 239.637817,241.360748 
	C227.665817,240.975250 216.426865,244.803909 204.243332,247.657684 
M308.050781,270.494263 
	C312.299316,273.730133 317.339081,274.710754 322.436768,275.378204 
	C338.257935,277.449585 345.303619,274.527863 352.909241,258.836975 
	C354.528748,255.495865 353.614471,253.481766 349.797333,252.118561 
	C339.426239,248.414780 328.532776,247.389725 317.824554,245.509964 
	C313.984070,244.835815 310.046295,243.879089 305.995300,244.287048 
	C303.784760,244.509659 301.744202,245.015381 301.565521,247.379593 
	C300.946594,255.570267 300.913361,263.700653 308.050781,270.494263 
z"/>
<path fill="#000000" opacity="1.000000" stroke="none" 
	d="
M224.988098,257.366577 
	C223.160721,258.627075 221.474655,258.368713 219.831238,258.230225 
	C216.497070,257.949219 213.955215,259.003632 212.590805,262.245667 
	C211.789520,264.149658 210.488937,265.352509 208.325333,264.544739 
	C205.827438,263.612152 205.426559,261.498077 205.907425,259.194946 
	C207.294220,252.552841 218.259537,248.176315 223.942734,251.980850 
	C225.839706,253.250732 226.606705,254.905624 224.988098,257.366577 
z"/>
<path fill="#000000" opacity="1.000000" stroke="none" 
	d="
M322.013794,251.787140 
	C324.144592,253.351425 325.870972,254.933273 324.589417,257.380737 
	C323.314087,259.816467 321.138275,259.441345 318.933075,258.577789 
	C316.748688,257.722382 314.724365,258.088898 312.878876,259.634216 
	C311.028168,261.183899 308.848297,261.905914 307.238159,259.611206 
	C305.657776,257.358887 306.527649,255.176971 308.619446,253.501694 
	C312.597900,250.315445 316.919220,249.502960 322.013794,251.787140 
z"/>
</svg>