<svg version="1.1" id="Layer_1" xmlns="http://www.w3.org/2000/svg" xmlns:xlink="http://www.w3.org/1999/xlink" x="0px" y="0px"
	 width="100%" viewBox="0 0 768 896" enable-background="new 0 0 768 896" xml:space="preserve">
<path fill="#000000" opacity="1.000000" stroke="none" 
	d="
M417.326904,266.430603 
	C433.987823,271.647461 446.527435,281.739960 455.606628,295.937897 
	C458.282745,300.122803 461.229980,301.834076 465.766357,300.999847 
	C470.827454,300.069122 472.877350,302.256439 474.881317,306.905731 
	C483.345856,326.543854 481.362762,346.254242 476.379120,366.092224 
	C474.401489,373.964325 471.520203,376.208282 463.245819,376.225800 
	C459.694550,376.233307 457.497162,377.370667 455.457031,380.305389 
	C446.629669,393.003540 434.845398,401.945160 420.110260,406.790009 
	C417.509460,407.645142 416.433868,408.866669 416.264557,411.691162 
	C415.914642,417.529114 416.240234,423.341431 416.236786,429.164917 
	C416.234711,432.700195 417.743713,433.754456 421.095581,433.715973 
	C427.763306,433.639404 429.849243,435.530273 430.217804,442.377899 
	C431.050018,457.838501 431.832458,473.306732 432.276062,488.782196 
	C433.029144,515.054993 431.236450,541.332886 432.269775,567.615417 
	C432.525146,574.109558 431.577332,580.546509 430.042542,586.906616 
	C424.845337,608.443359 396.414154,615.484680 379.512482,604.671631 
	C366.115326,596.100586 360.192657,584.695923 360.512543,568.853943 
	C361.134430,538.056580 364.464844,507.410889 365.043335,476.618195 
	C365.252594,465.479248 366.146057,454.348267 366.912750,443.226440 
	C367.437134,435.619934 367.997406,431.847107 376.929291,432.660675 
	C379.766937,432.919159 380.687500,431.228119 380.664764,428.615967 
	C380.608154,422.117065 380.638397,415.617371 380.645569,409.117981 
	C380.648010,406.898682 379.869354,405.186768 377.590668,404.537964 
	C363.574158,400.546875 353.312195,391.278351 345.415833,379.740784 
	C341.396759,373.868439 336.456787,373.711792 331.263153,374.569855 
	C325.711945,375.486969 323.590729,373.080536 322.197174,368.587769 
	C316.869965,351.413361 315.295013,334.068756 319.846283,316.457733 
	C321.094757,311.626923 322.619568,306.864105 323.755188,302.008698 
	C324.600800,298.393280 326.669037,297.064148 330.214172,297.478119 
	C332.031250,297.690308 333.879333,297.631287 335.698883,297.828827 
	C338.871338,298.173218 340.822357,296.887421 342.605011,294.154816 
	C355.347229,274.622467 373.618744,264.417725 396.783386,263.279968 
	C403.573547,262.946442 410.388367,264.191010 417.326904,266.430603 
M455.021698,369.705200 
	C456.853973,369.692261 458.724396,369.434418 460.511353,369.712616 
	C465.726440,370.524536 468.032867,367.984009 469.246033,363.225250 
	C470.689545,357.562897 471.752930,351.847076 472.360565,346.066681 
	C473.588013,334.389984 473.766968,322.794434 468.691040,311.745972 
	C467.687592,309.561829 466.561890,307.798615 463.945953,308.368713 
	C455.879059,310.126831 451.196747,306.263000 448.283661,299.255798 
	C448.157959,298.953430 447.930328,298.692352 447.743469,298.416626 
	C423.298950,262.342987 371.897491,262.371674 349.286499,298.845917 
	C345.685455,304.654816 342.162354,307.404602 335.617981,306.376923 
	C331.457733,305.723602 329.851868,308.015656 328.703186,311.724884 
	C323.947266,327.081940 323.905762,342.506805 327.305573,358.078796 
	C329.201141,366.761017 331.441956,368.800873 340.309845,367.385986 
	C345.290283,366.591309 347.483704,368.573578 349.870941,372.288391 
	C374.579376,410.737610 426.257538,411.338470 449.707672,374.221924 
	C450.827454,372.449554 451.709900,370.284454 455.021698,369.705200 
M405.608215,412.077087 
	C405.516510,409.888916 404.132721,409.337128 402.235260,409.356750 
	C400.240173,409.377380 398.222900,409.515106 396.253723,409.279877 
	C392.644623,408.848816 391.029572,410.254456 390.987183,413.919067 
	C390.927643,419.063263 391.218445,424.224213 390.396637,429.347870 
	C390.005554,431.785858 391.254669,433.201050 393.639343,433.405090 
	C395.951202,433.602844 398.290649,433.466400 400.605896,433.638672 
	C403.731079,433.871185 405.233521,432.503418 405.288696,429.395660 
	C405.385864,423.918243 405.519470,418.441467 405.608215,412.077087 
z"/>
<path fill="#000000" opacity="1.000000" stroke="none" 
	d="
M351.383118,329.690369 
	C354.774506,309.874939 365.899139,296.815399 384.428925,290.963013 
	C403.399139,284.971588 420.603790,289.529663 434.175354,304.007324 
	C448.361145,319.140228 451.343994,337.284912 443.474579,356.345612 
	C435.761078,375.028778 420.666351,385.030304 400.751770,385.717255 
	C376.504944,386.553711 356.683929,370.333374 351.711578,346.471527 
	C350.584839,341.064362 350.162933,335.605927 351.383118,329.690369 
M358.945709,340.312592 
	C361.261444,363.985138 382.431671,381.037354 405.139984,377.521149 
	C428.573242,373.892700 444.050323,350.664246 438.410583,327.587677 
	C432.908569,305.074677 408.875000,291.509094 386.749115,298.386230 
	C371.348541,303.173004 357.559875,318.548737 358.945709,340.312592 
z"/>
</svg>