<svg version="1.1" id="Layer_1" xmlns="http://www.w3.org/2000/svg" xmlns:xlink="http://www.w3.org/1999/xlink" x="0px" y="0px"
	 width="100%" viewBox="0 0 576 480" enable-background="new 0 0 576 480" xml:space="preserve">
<path fill="#000000" opacity="1.000000" stroke="none" 
	d="
M275.971466,195.964722 
	C277.346527,193.693726 278.699371,191.408905 280.101044,189.154449 
	C283.494690,183.696213 288.378265,182.243591 293.464386,186.065369 
	C310.437286,198.819046 320.881439,214.887100 322.650879,237.022995 
	C324.464081,259.706116 319.329041,280.598602 311.181183,301.149963 
	C308.374207,308.229950 304.703857,314.981049 299.959473,321.089935 
	C296.879547,325.055664 293.001556,326.947632 288.099548,327.427399 
	C276.359406,328.576508 266.786560,324.644806 258.447876,316.319550 
	C240.121017,298.022217 230.083557,276.125671 230.280655,250.253342 
	C230.399185,234.694809 235.945755,220.524963 244.172668,207.115662 
	C250.992599,195.999619 259.425201,187.537262 271.684357,183.030457 
	C272.621063,182.686096 273.557587,182.290665 274.529724,182.101974 
	C278.774261,181.278061 280.577637,183.325455 279.240234,187.403946 
	C278.362091,190.082016 276.381256,192.325836 275.851807,195.890045 
	C271.068146,206.892868 265.977356,217.031143 262.580811,227.834839 
	C260.895447,233.195770 258.824432,238.845993 260.495300,244.463074 
	C262.865173,252.430008 262.123993,260.641785 263.346405,268.662659 
	C265.219788,280.954529 269.331543,292.308777 278.150635,301.847412 
	C279.277313,299.049683 278.395020,296.917969 276.895813,295.117981 
	C270.749695,287.738892 269.156128,279.132812 269.778351,269.866180 
	C269.956604,267.211609 270.085785,264.560547 269.075409,261.985565 
	C263.979828,248.999268 264.568329,236.059296 268.993134,222.981003 
	C271.974701,214.168457 274.112793,205.091431 275.971466,195.964722 
z"/>
</svg>